<?xml version="1.0" encoding="utf-8"?>
<!-- Generator: Adobe Illustrator 26.1.0, SVG Export Plug-In . SVG Version: 6.00 Build 0)  -->
<svg version="1.1" id="Layer_1" xmlns="http://www.w3.org/2000/svg" xmlns:xlink="http://www.w3.org/1999/xlink" x="0px" y="0px"
	 viewBox="0 0 82.9 74.2" style="enable-background:new 0 0 82.9 74.2;" xml:space="preserve">
<style type="text/css">
	.st0{fill-rule:evenodd;clip-rule:evenodd;fill:#5FC0B1;}
	.st1{fill-rule:evenodd;clip-rule:evenodd;fill:#ABD812;}
	.st2{fill-rule:evenodd;clip-rule:evenodd;fill:#3DA42A;}
	.st3{fill-rule:evenodd;clip-rule:evenodd;fill:#44A6B0;}
	.st4{fill-rule:evenodd;clip-rule:evenodd;fill:#FF8000;}
</style>
<desc>Created with Sketch.</desc>
<path id="Fill-3_00000041264736099023538860000016939201595598231433_" class="st0" d="M33,18.2h2c1.7,0,2.9-0.4,3.9-1.1
	c0.9-0.8,1.3-1.7,1.3-2.9c0-1.4-0.4-2.3-1.1-2.9c-0.8-0.6-2-0.9-3.7-0.9H33V18.2z M33,28.1h-2.1V8.8h5.2c2.1,0,3.6,0.5,4.7,1.5
	c1,1,1.6,2.3,1.6,4c0,1.2-0.4,2.3-1.2,3.3c-0.8,1-1.8,1.6-2.8,1.9l5.4,8.7h-2.5l-5-8.3c-0.1,0-1.2,0-3.3,0V28.1z"/>
<path id="Fill-5_00000082368895479559508090000008491452846185568442_" class="st1" d="M47,24.3c0.6,0.6,1.3,1.2,2.2,1.7
	c0.8,0.5,1.8,0.7,2.9,0.7c1.3,0,2.3-0.3,3-0.9c0.8-0.6,1.1-1.4,1.1-2.6c0-1.1-0.3-1.9-1-2.4c-0.7-0.5-1.7-1-3.1-1.6l-1-0.4
	c-1.5-0.5-2.7-1.2-3.7-2.1c-1-0.9-1.5-2.1-1.5-3.5c0-1.5,0.6-2.7,1.7-3.5c1.1-0.9,2.6-1.3,4.3-1.3c1.3,0,2.5,0.2,3.3,0.6
	c0.9,0.4,1.7,1,2.4,1.7l-1.2,1.4c-0.5-0.5-1.2-0.9-1.9-1.3c-0.7-0.4-1.6-0.6-2.6-0.6c-1.1,0-2.1,0.3-2.8,0.8
	C48.4,11.5,48,12.1,48,13c0,1,0.4,1.8,1.3,2.4c0.9,0.6,1.7,1,2.6,1.4l1.8,0.8c1.9,0.7,3.2,1.5,3.8,2.3c0.7,0.8,1,1.9,1,3.2
	c0,1.7-0.6,3.1-1.9,4.1c-1.2,0.9-2.7,1.4-4.5,1.4c-0.7,0-1.4,0-2-0.1c-0.6-0.1-1.2-0.3-1.7-0.5c-0.5-0.2-1.1-0.5-1.5-0.8
	c-0.5-0.4-0.9-0.8-1.4-1.2L47,24.3z"/>
<polygon id="Fill-7_00000039114926769049450680000007591833315776108960_" class="st2" points="74.2,10.5 68.2,10.5 68.2,28.1 
	66.1,28.1 66.1,10.5 60.1,10.5 60.1,8.8 74.2,8.8 "/>
<polygon id="Fill-9_00000157305704433872717090000009082378888054145694_" class="st3" points="19.2,10.5 10.9,10.5 10.9,17 
	17.5,17 17.5,18.6 10.9,18.6 10.9,28.1 8.8,28.1 8.8,8.8 19.2,8.8 "/>
<polygon id="Fill-11_00000124162270394823393940000009769049598744894637_" class="st4" points="10.9,18.6 14.2,18.6 14.2,17 
	10.9,17 "/>
<polygon id="Fill-13_00000022551602093122764870000008175738103701572282_" class="st4" points="14,10.5 19.2,10.5 19.2,8.8 14,8.8 
	"/>
<polygon id="Fill-14_00000038386910679150959710000011347970783061224841_" class="st3" points="23.5,28.1 25.5,28.1 25.5,8.8 
	23.5,8.8 "/>
<polygon id="Fill-15_00000089570721376008949570000004860797758884395399_" class="st4" points="23.5,28.1 25.5,28.1 25.5,18.3 
	23.5,18.3 "/>
<path id="Fill-18_00000004510016408535403020000015484357311324728462_" class="st4" d="M18.5,61h1c0.9,0,1.5-0.2,2-0.6
	c0.5-0.4,0.7-0.9,0.7-1.5c0-0.7-0.2-1.2-0.6-1.5c-0.4-0.3-1-0.5-2-0.5h-1.2V61z M18.5,66.1h-1.1V56h2.7c1.1,0,1.9,0.3,2.4,0.8
	c0.5,0.5,0.8,1.2,0.8,2.1c0,0.7-0.2,1.2-0.6,1.7c-0.4,0.5-0.9,0.8-1.5,1l2.8,4.5h-1.3l-2.6-4.3c-0.1,0-0.6,0-1.7,0V66.1z"/>
<path id="Fill-19_00000080909192690166132590000018412895207676343950_" class="st4" d="M30.6,65.3c0.8,0,1.6-0.4,2.3-1.2
	c0.7-0.8,1-1.9,1-3.4c0-1-0.3-1.9-0.8-2.8c-0.5-0.9-1.3-1.3-2.4-1.3c-1.1,0-1.9,0.4-2.5,1.2c-0.6,0.8-0.9,1.8-0.9,3
	c0,1.4,0.3,2.5,0.9,3.3C28.9,64.9,29.7,65.3,30.6,65.3 M30.6,66.3c-1.4,0-2.5-0.5-3.3-1.5c-0.8-1-1.2-2.3-1.2-3.9
	c0-1.5,0.4-2.7,1.3-3.7c0.9-1,1.9-1.4,3.2-1.4c1.4,0,2.5,0.5,3.2,1.4c0.8,1,1.2,2.3,1.2,3.9c0,1.5-0.4,2.7-1.3,3.7
	C32.9,65.8,31.8,66.3,30.6,66.3"/>
<path id="Fill-20_00000036963740586358604900000004356614252453918886_" class="st3" d="M42,65.3c0.8,0,1.5-0.1,2.1-0.3v-2.9h-1.4
	v-0.8h2.5v4.2c-1,0.5-2.1,0.8-3.3,0.8c-1.4,0-2.4-0.5-3.1-1.5c-0.7-1-1.1-2.3-1.1-3.8c0-1.5,0.4-2.7,1.1-3.7c0.8-1,1.8-1.5,3.1-1.5
	c1.2,0,2.2,0.4,2.8,1.1l-0.7,0.7c-0.5-0.6-1.3-0.9-2.2-0.9c-0.9,0-1.6,0.4-2.2,1.1c-0.6,0.7-0.9,1.7-0.9,3c0,1.3,0.3,2.4,0.8,3.2
	C40.3,64.9,41,65.3,42,65.3"/>
<path id="Fill-21_00000116943398773390547110000011853679225000254641_" class="st0" d="M48.8,61h1.1c0.9,0,1.5-0.2,2-0.6
	c0.5-0.4,0.7-0.9,0.7-1.5c0-0.7-0.2-1.2-0.6-1.5c-0.4-0.3-1-0.5-1.9-0.5h-1.2V61z M48.8,66.1h-1.1V56h2.7c1.1,0,1.9,0.3,2.4,0.8
	c0.5,0.5,0.8,1.2,0.8,2.1c0,0.7-0.2,1.2-0.6,1.7c-0.4,0.5-0.9,0.8-1.5,1l2.8,4.5h-1.3l-2.6-4.3c-0.1,0-0.6,0-1.7,0V66.1z"/>
<path id="Fill-22_00000010278875511689430160000003140804406806577082_" class="st1" d="M58.2,61.9h3l-1.5-4.6L58.2,61.9z M59.2,56
	h1.1l3.3,10.1h-1.2l-1.1-3.4H58l-1.1,3.4h-1.1L59.2,56z"/>
<polygon id="Fill-23_00000020390442900242314800000000210280291032349315_" class="st2" points="70.5,66.1 69.5,66.1 67,58.5 
	67,66.1 65.9,66.1 65.9,56 67,56 70,65 73,56 74.1,56 74.1,66.1 73,66.1 73,58.5 "/>
<path id="Fill-24_00000106107838014407898670000017387537368507369865_" class="st3" d="M9.9,61H11c0.8,0,1.5-0.2,2-0.6
	c0.5-0.4,0.7-0.9,0.7-1.6c0-0.7-0.2-1.2-0.6-1.5c-0.4-0.3-1-0.5-1.9-0.5H9.9V61z M9.9,61.8v4.2H8.8V56h2.7c1,0,1.8,0.3,2.4,0.8
	c0.6,0.5,0.8,1.2,0.8,2.2c0,0.8-0.3,1.5-1,2c-0.7,0.6-1.6,0.9-2.8,0.9H9.9z"/>
<polygon id="Fill-25_00000001627065603437111860000003721660248605502133_" class="st4" points="8.8,61 9.9,61 9.9,56.8 8.8,56.8 
	"/>
<path id="Fill-26_00000180345752850970181270000010827135780143711883_" class="st2" d="M59.9,41.9h2c1.7,0,2.9-0.4,3.8-1.1
	c0.9-0.7,1.4-1.7,1.4-2.9c0-1.3-0.4-2.3-1.1-2.9c-0.8-0.6-2-0.9-3.7-0.9h-2.4V41.9z M59.9,51.8h-2.1V32.4h5.2c2,0,3.6,0.5,4.6,1.5
	c1,1,1.5,2.3,1.5,4c0,1.2-0.4,2.3-1.2,3.3c-0.8,1-1.7,1.6-2.8,1.9l5.4,8.7h-2.5l-5-8.3c-0.1,0-1.2,0-3.3,0.1V51.8z"/>
<polygon id="Fill-27_00000042712417019962678240000014485015112867749519_" class="st4" points="37,34.1 28.8,34.1 28.8,40.7 
	35.4,40.7 35.4,42.3 28.8,42.3 28.8,50.1 37.4,50.1 37.4,51.8 26.7,51.8 26.7,32.4 37,32.4 "/>
<polygon id="Fill-28_00000119798747139181200290000017170198671474083487_" class="st3" points="28.8,42.3 32.1,42.3 32.1,40.7 
	28.8,40.7 "/>
<polygon id="Fill-29_00000044865335410637685770000001544534059468878771_" class="st3" points="31.9,34.1 37,34.1 37,32.4 
	31.9,32.4 "/>
<polygon id="Fill-30_00000039847185713987517690000005515810138617961143_" class="st3" points="32.2,51.8 37.4,51.8 37.4,50.1 
	32.2,50.1 "/>
<polygon id="Fill-31_00000179605595744555778830000004041212843546594457_" class="st4" points="16.4,42.1 21.6,32.4 24,32.4 
	17.5,44.3 17.5,51.8 15.3,51.8 15.3,44.4 8.8,32.4 11.3,32.4 "/>
<path id="Fill-32_00000019654527674882303160000018083963166788819866_" class="st1" d="M44.7,43.7h5.7l-2.8-8.8L44.7,43.7z
	 M46.7,32.4h2l6.4,19.3h-2.3l-2.1-6.6h-6.5l-2.1,6.6h-2.1L46.7,32.4z"/>
<polygon id="Fill-33_00000012469812172280867010000006309242913924692138_" class="st4" points="82.1,28.2 80.6,28.2 80.6,2.2 
	14,2.2 14,0.7 82.1,0.7 "/>
<polygon id="Fill-34_00000005249394765837299260000011664281078991030422_" class="st4" points="69,73.9 0.9,73.9 0.9,46.4 
	2.4,46.4 2.4,72.4 69,72.4 "/>
<polygon id="Fill-35_00000085940329507673034190000013015108931508520883_" class="st3" points="2.8,61.4 0.9,61.4 0.9,0.5 14,0.5 
	14,2.4 2.8,2.4 "/>
<polygon id="Fill-36_00000139278977033484465590000015945493582804305286_" class="st3" points="82.1,74.1 69,74.1 69,72.2 
	80.2,72.2 80.2,13.2 82.1,13.2 "/>
</svg>
