<?xml version="1.0" encoding="utf-8"?>
<!-- Generator: Adobe Illustrator 26.1.0, SVG Export Plug-In . SVG Version: 6.00 Build 0)  -->
<svg version="1.1" id="Layer_1" xmlns="http://www.w3.org/2000/svg" xmlns:xlink="http://www.w3.org/1999/xlink" x="0px" y="0px"
	 viewBox="0 0 34.4 20.4" style="enable-background:new 0 0 34.4 20.4;" xml:space="preserve">
<style type="text/css">
	.st0{fill-rule:evenodd;clip-rule:evenodd;fill:#6D6865;}
	.st1{fill-rule:evenodd;clip-rule:evenodd;fill:#181916;}
	.st2{fill-rule:evenodd;clip-rule:evenodd;fill:#E27F2D;}
	.st3{fill-rule:evenodd;clip-rule:evenodd;fill:#FFFFFE;}
	.st4{fill-rule:evenodd;clip-rule:evenodd;fill:#BF282B;}
	.st5{fill-rule:evenodd;clip-rule:evenodd;fill:#2F83B9;}
</style>
<g>
	<g>
		<path class="st0" d="M11.7,9.2H12V8.8h-0.3V9.2z"/>
		<path class="st0" d="M12.1,9.2h0.3V8.8h-0.3V9.2z"/>
		<path class="st0" d="M12.5,9.2h0.3V8.8h-0.3V9.2z"/>
		<path class="st0" d="M12.9,9.2h0.3V8.8h-0.3V9.2z"/>
		<path class="st0" d="M11.7,8.8H12V8.5h-0.3V8.8z"/>
		<path class="st0" d="M12.1,8.8h0.3V8.5h-0.3V8.8z"/>
		<path class="st0" d="M12.5,8.8h0.3V8.5h-0.3V8.8z"/>
		<path class="st0" d="M12.9,8.8h0.3V8.5h-0.3V8.8z"/>
		<path class="st0" d="M13.7,8.8H14V8.5h-0.3V8.8z"/>
		<path class="st0" d="M11.7,8.3H12V8.1h-0.3V8.3z"/>
		<path class="st0" d="M12.1,8.3h0.3V8.1h-0.3V8.3z"/>
		<path class="st0" d="M12.9,8.3h0.3V8.1h-0.3V8.3z"/>
		<path class="st0" d="M13.3,8.3h0.3V8.1h-0.3V8.3z"/>
		<path class="st0" d="M13.7,8.3H14V8.1h-0.3V8.3z"/>
		<path class="st0" d="M12.1,8h0.3V7.7h-0.3V8z"/>
		<path class="st0" d="M12.5,8h0.3V7.7h-0.3V8z"/>
		<path class="st0" d="M12.9,8h0.3V7.7h-0.3V8z"/>
		<path class="st0" d="M13.3,8h0.3V7.7h-0.3V8z"/>
		<path class="st0" d="M14.1,8h0.3V7.7h-0.3V8z"/>
		<path class="st0" d="M12.1,7.6h0.3V7.2h-0.3V7.6z"/>
		<path class="st0" d="M12.5,7.6h0.3V7.2h-0.3V7.6z"/>
		<path class="st0" d="M12.9,7.6h0.3V7.2h-0.3V7.6z"/>
		<path class="st0" d="M13.3,7.6h0.3V7.2h-0.3V7.6z"/>
		<path class="st0" d="M13.7,7.6H14V7.2h-0.3V7.6z"/>
		<path class="st0" d="M14.1,7.6h0.3V7.2h-0.3V7.6z"/>
		<path class="st0" d="M14.4,7.6h0.3V7.2h-0.3V7.6z"/>
		<path class="st0" d="M15.3,7.6h0.3V7.2h-0.3V7.6z"/>
		<path class="st0" d="M12.9,7.2h0.3V6.9h-0.3V7.2z"/>
		<path class="st0" d="M13.3,7.2h0.3V6.9h-0.3V7.2z"/>
		<path class="st0" d="M14.1,7.2h0.3V6.9h-0.3V7.2z"/>
		<path class="st0" d="M14.9,7.2h0.3V6.9h-0.3V7.2z"/>
		<path class="st0" d="M12.5,6.8h0.3V6.5h-0.3V6.8z"/>
		<path class="st0" d="M12.9,6.8h0.3V6.5h-0.3V6.8z"/>
		<path class="st0" d="M13.3,6.8h0.3V6.5h-0.3V6.8z"/>
		<path class="st0" d="M13.7,6.8H14V6.5h-0.3V6.8z"/>
		<path class="st0" d="M14.1,6.8h0.3V6.5h-0.3V6.8z"/>
		<path class="st0" d="M14.9,6.8h0.3V6.5h-0.3V6.8z"/>
		<path class="st0" d="M16.9,6.8h0.3V6.5h-0.3V6.8z"/>
		<path class="st0" d="M12.9,6.5h0.3V6.1h-0.3V6.5z"/>
		<path class="st0" d="M13.7,6.5H14V6.1h-0.3V6.5z"/>
		<path class="st0" d="M14.4,6.5h0.3V6.1h-0.3V6.5z"/>
		<path class="st0" d="M15.3,6.5h0.3V6.1h-0.3V6.5z"/>
		<path class="st0" d="M14.1,6h0.3V5.7h-0.3V6z"/>
		<path class="st0" d="M14.9,6h0.3V5.7h-0.3V6z"/>
		<path class="st0" d="M14.4,5.7h0.3V5.4h-0.3V5.7z"/>
		<path class="st0" d="M15.3,5.7h0.3V5.4h-0.3V5.7z"/>
		<path class="st0" d="M16,5.7h0.3V5.4H16V5.7z"/>
		<path class="st0" d="M14.1,5.2h0.3V5h-0.3V5.2z"/>
		<path class="st0" d="M16,4.9h0.3V4.5H16V4.9z"/>
		<path class="st0" d="M17.3,4.9h0.3V4.5h-0.3V4.9z"/>
		<path class="st0" d="M16,4.5h0.3V4.1H16V4.5z"/>
		<path class="st0" d="M16,4.1h0.3V3.7H16V4.1z"/>
		<path class="st0" d="M16.5,3.7h0.3V3.4h-0.3V3.7z"/>
	</g>
	<path class="st1" d="M10.8,8.2h0.9V8.1h-0.9V8.2z"/>
	<path class="st0" d="M9.8,4.5c-0.1,0-0.1,0.1-0.3,0.1C9.3,4.6,9.2,4.8,9.3,4.7c0.2,0,0.3-0.1,0.4-0.1C10,4.6,9.8,4.5,9.8,4.5
		 M9.9,5.2c-0.2,0-0.2,0.1-0.2,0.1C9.7,5.4,9.8,5.4,10,5.4C10.1,5.4,10.1,5.2,9.9,5.2 M11.6,9.2H13c-0.4,0.4-1.4,1.2-3.5,1.9
		C5.7,12.6,2,10.9,4.2,7.8C6.4,4.8,9.8,4,10.1,4c0.4-0.1,0.9-0.1,0.7,0c-0.3,0.1-0.8,0.3-0.8,0.4c0.1,0.1,0.4,0,0.6-0.1
		c0.2-0.1,0.2,0.1,0.1,0.2c-0.1,0.1-0.2,0-0.1,0.1c0,0.1,0,0.1-0.2,0.2c-0.1,0.1-0.4,0.1-0.6,0.1C9.7,5,10.1,5,10.2,4.9
		c0.2-0.1,0.3-0.1,0.5-0.1c0.2,0,0,0.1,0.1,0.2C10.9,5,11.6,4.9,11.4,5c-0.1,0.1,0.3,0.1,0,0.2C11.1,5.3,8.2,5.6,6,7.1
		s-2.5,4.5,1.3,3.8c2.7-0.6,3.9-1.8,4.3-2.5L11.6,9.2L11.6,9.2z"/>
	<path class="st2" d="M6.8,8.2c0-1,0.8-1.8,1.8-1.8s1.8,0.8,1.8,1.8S9.6,10,8.6,10S6.8,9.2,6.8,8.2"/>
	<path class="st3" d="M7.4,7.4C7.3,7.2,7.4,7,7.6,7C7.7,6.9,7.9,7,8,7.1c0.1,0.2,0,0.4-0.2,0.4C7.7,7.7,7.5,7.6,7.4,7.4"/>
	<path class="st0" d="M11.4,4c0-0.1-0.4-0.1-0.4,0c0,0.1-0.2,0.1-0.3,0.1c0,0.1,0.1,0.1,0.3,0C11.2,4.1,11.4,4.1,11.4,4 M11.7,4.2
		c-0.1-0.1-0.4-0.1-0.5-0.1c-0.1,0.1-0.2,0.1-0.3,0.1c-0.1,0,0.1,0.1,0.2,0.1s0.1-0.1,0.3,0C11.6,4.5,11.7,4.3,11.7,4.2 M11.2,4.6
		c-0.2,0.1-0.2,0.1-0.3,0.1c-0.1,0,0,0.1,0.2,0.1c0.2-0.1,0.3-0.1,0.4-0.1c0.1,0,0.1-0.1-0.1-0.1C11.3,4.5,11.2,4.6,11.2,4.6
		 M11.9,4.5c-0.1-0.1-0.2-0.1-0.3,0c-0.1,0.1-0.1,0.1,0.1,0.1C11.8,4.6,11.9,4.5,11.9,4.5 M12.4,4.7c-0.1,0-0.4,0.1-0.4,0
		c-0.1,0-0.1,0.1-0.3,0.1s-0.3,0-0.2,0.1c0.1,0.1,0.4,0.1,0.6,0C12.1,4.7,12.3,4.7,12.4,4.7C12.5,4.8,12.4,4.7,12.4,4.7"/>
	<path class="st1" d="M2,8.2h4.4V8.1H2V8.2z"/>
	<path class="st1" d="M8.5,15.1h0.2v-4.4H8.5V15.1z"/>
	<path class="st1" d="M8.5,5.8h0.2V1.3H8.5V5.8z"/>
	<path class="st1" d="M14.1,8.2H27V8.1H14.1V8.2z"/>
	<path class="st4" d="M27,8.1c0-0.2,0.1-0.3,0.3-0.3c0.2,0,0.3,0.1,0.3,0.3c0,0.2-0.1,0.3-0.3,0.3C27.1,8.5,27,8.3,27,8.1 M8.3,1
		c0-0.2,0.1-0.3,0.3-0.3c0.2,0,0.3,0.1,0.3,0.3S8.8,1.4,8.6,1.4C8.4,1.3,8.3,1.2,8.3,1"/>
	<path class="st1" d="M12.8,13.9c0-0.1-0.1-0.2-0.1-0.2c-0.1-0.1-0.1-0.1-0.2-0.1h-0.7v0.7h0.7c0.1,0,0.2-0.1,0.3-0.1
		C12.8,14.1,12.8,14.1,12.8,13.9 M12.7,12.7c0-0.1,0-0.1-0.1-0.2c-0.1-0.1-0.1-0.1-0.2-0.1h-0.7v0.6h0.7c0.1,0,0.2-0.1,0.2-0.1
		C12.7,12.8,12.7,12.7,12.7,12.7 M13.7,13.9c0,0.4-0.1,0.6-0.3,0.8S12.9,15,12.4,15h-1.6v-3.3h1.6c0.4,0,0.7,0.1,0.9,0.2
		c0.2,0.1,0.3,0.4,0.3,0.7c0,0.2-0.1,0.3-0.1,0.4c-0.1,0.1-0.2,0.2-0.3,0.2c0.1,0.1,0.3,0.1,0.4,0.3C13.7,13.6,13.7,13.7,13.7,13.9"
		/>
	<path class="st1" d="M14.1,15H15v-3.3h-0.9V15z"/>
	<path class="st1" d="M17.7,15l-0.8-1.1c-0.1-0.1-0.1-0.1-0.1-0.2c-0.1-0.1-0.1-0.1-0.1-0.2c-0.1-0.1-0.1-0.1-0.1-0.2
		c-0.1-0.1-0.1-0.1-0.1-0.1c0,0.1,0,0.1,0,0.2s0,0.1,0,0.2c0,0.1,0,0.2,0,0.2V15h-0.9v-3.3h0.8l0.7,1c0.1,0.1,0.1,0.1,0.1,0.2
		c0.1,0.1,0.1,0.1,0.1,0.2c0.1,0.1,0.1,0.1,0.1,0.2c0.1,0.1,0.1,0.1,0.1,0.1c0-0.1,0-0.1,0-0.1c0-0.1,0-0.1,0-0.2s0-0.2,0-0.2v-1.2
		h0.9V15L17.7,15z M21.7,14.3c-0.1,0.2-0.2,0.3-0.3,0.4c-0.1,0.1-0.3,0.2-0.4,0.3c-0.2,0.1-0.4,0.1-0.6,0.1S20,15.1,19.8,15
		c-0.2-0.1-0.3-0.1-0.4-0.3c-0.1-0.1-0.2-0.3-0.3-0.4c-0.1-0.2-0.1-0.4-0.1-0.7v-1.9h0.9v1.9c0,0.2,0.1,0.4,0.1,0.5
		c0.1,0.1,0.2,0.2,0.4,0.2c0.2,0,0.3-0.1,0.4-0.2c0.1-0.1,0.1-0.3,0.1-0.5v-1.9h0.9v1.9C21.9,13.8,21.8,14.1,21.7,14.3 M25,14
		c0,0.2-0.1,0.4-0.1,0.5c-0.1,0.1-0.2,0.2-0.3,0.3c-0.1,0.1-0.3,0.1-0.4,0.2c-0.2,0.1-0.4,0.1-0.6,0.1c-0.3,0-0.6-0.1-0.8-0.1
		c-0.2-0.1-0.4-0.2-0.7-0.3l0.4-0.7c0.1,0.1,0.1,0.1,0.2,0.1s0.2,0.1,0.3,0.1c0.1,0.1,0.2,0.1,0.3,0.1c0.1,0,0.2,0.1,0.2,0.1
		c0.2,0,0.3,0,0.3-0.1c0.1-0.1,0.1-0.1,0.1-0.2c0-0.1,0-0.1-0.1-0.1c0-0.1-0.1-0.1-0.1-0.1c-0.1-0.1-0.1-0.1-0.2-0.1
		c-0.1-0.1-0.2-0.1-0.3-0.1c-0.2-0.1-0.4-0.1-0.6-0.1c-0.1-0.1-0.3-0.1-0.4-0.2c-0.1-0.1-0.2-0.2-0.2-0.3c-0.1-0.1-0.1-0.3-0.1-0.4
		c0-0.1,0.1-0.3,0.1-0.4c0.1-0.1,0.1-0.2,0.3-0.3c0.1-0.1,0.3-0.2,0.4-0.2c0.2-0.1,0.4-0.1,0.6-0.1c0.3,0,0.6,0.1,0.7,0.1
		c0.2,0.1,0.4,0.2,0.6,0.3l-0.4,0.7c-0.1-0.1-0.3-0.2-0.4-0.2c-0.1-0.1-0.3-0.1-0.5-0.1c-0.1,0-0.2,0-0.3,0.1s-0.1,0.1-0.1,0.1
		s0,0.1,0.1,0.1c0,0.1,0.1,0.1,0.1,0.1c0.1,0,0.1,0.1,0.2,0.1c0.1,0,0.2,0.1,0.3,0.1c0.2,0.1,0.4,0.1,0.6,0.2
		c0.1,0.1,0.3,0.1,0.4,0.2c0.1,0.1,0.2,0.2,0.2,0.3C24.9,13.7,25,13.8,25,14"/>
	<path class="st5" d="M11.8,18.7c-0.6,0-0.9-0.4-0.9-1.1v-1.3h0.4v1.3c0,0.4,0.2,0.6,0.4,0.6c0.3,0,0.5-0.2,0.5-0.6v-1.3h0.4v1.3
		C12.8,18.3,12.4,18.7,11.8,18.7 M14.8,18.7l-0.9-1.3c-0.1-0.1-0.1-0.2-0.2-0.3c0,0.1,0,0.4,0,0.5v1.1h-0.4v-2.3h0.4l0.8,1.2
		c0.1,0.1,0.1,0.2,0.2,0.3c0-0.1,0-0.4,0-0.5v-1h0.4v2.3H14.8z"/>
	<path class="st5" d="M15.9,18.7h0.4v-2.3h-0.4V18.7z"/>
	<path class="st5" d="M18.1,18.7h-0.4l-0.8-2.3h0.5l0.4,1.4c0.1,0.1,0.1,0.3,0.1,0.4c0-0.1,0.1-0.2,0.1-0.4l0.4-1.4h0.5L18.1,18.7z"
		/>
	<path class="st5" d="M19.4,18.7v-2.3H21v0.4h-1.2v0.4h0.7v0.4h-0.7v0.6h1.2v0.4C21.1,18.7,19.4,18.7,19.4,18.7z"/>
	<path class="st5" d="M22.6,16.8H22v0.6h0.6c0.2,0,0.3-0.1,0.3-0.3C23,16.9,22.9,16.8,22.6,16.8z M22.9,18.7l-0.4-0.8h-0.4v0.8h-0.4
		v-2.3h1.1c0.4,0,0.8,0.2,0.8,0.7c0,0.4-0.1,0.6-0.4,0.7l0.4,0.9L22.9,18.7L22.9,18.7z M24.7,18.7c-0.4,0-0.7-0.2-0.9-0.4l0.3-0.3
		c0.2,0.2,0.4,0.3,0.6,0.3c0.3,0,0.4-0.1,0.4-0.3c0-0.1-0.1-0.2-0.5-0.3S24,17.4,24,17c0-0.4,0.4-0.7,0.8-0.7c0.4,0,0.7,0.1,0.9,0.4
		l-0.4,0.2c-0.1-0.1-0.3-0.2-0.6-0.2c-0.3,0-0.3,0.1-0.3,0.2c0,0.1,0.1,0.2,0.4,0.3c0.4,0.1,0.8,0.2,0.8,0.7
		C25.6,18.4,25.4,18.7,24.7,18.7"/>
	<path class="st5" d="M26.2,18.7h0.4v-2.3h-0.4V18.7z"/>
	<path class="st5" d="M28.3,16.8v1.9h-0.4v-1.9h-0.7v-0.4H29v0.4C29,16.8,28.3,16.8,28.3,16.8z"/>
	<path class="st5" d="M30.6,17.7v0.9h-0.4v-0.9l-0.9-1.4h0.6l0.3,0.6c0.1,0.1,0.2,0.4,0.3,0.4c0.1-0.1,0.2-0.3,0.3-0.4l0.3-0.6h0.6
		L30.6,17.7z"/>
	<path class="st4" d="M8.3,15.4c0-0.2,0.1-0.3,0.3-0.3c0.2,0,0.3,0.1,0.3,0.3c0,0.2-0.1,0.3-0.3,0.3C8.4,15.7,8.3,15.5,8.3,15.4
		 M1.3,8.1c0-0.2,0.1-0.3,0.3-0.3S2,7.9,2,8.1c0,0.2-0.1,0.3-0.3,0.3S1.3,8.3,1.3,8.1"/>
</g>
</svg>
